<svg width="213" height="213" viewBox="0 0 213 213" fill="none" xmlns="http://www.w3.org/2000/svg">
<g clip-path="url(#clip0_16_21)">
<path d="M144.797 67.9794L97.4729 115.304M48.6138 128.808L59.6623 117.759M70.7107 142.066L77.3398 135.437M90.5981 157.534L95.0175 153.115M99.2209 117.883L108.358 134.9C111.817 141.343 113.547 144.564 115.659 145.407C117.493 146.14 119.566 145.962 121.249 144.928C123.187 143.737 124.343 140.269 126.655 133.332L143.936 81.4905C145.971 75.3837 146.989 72.3299 146.265 70.2992C145.635 68.5323 144.245 67.1419 142.478 66.5117C140.447 65.7874 137.393 66.8056 131.286 68.8412L79.3737 86.1455C72.4563 88.4514 68.9976 89.6043 67.8068 91.5395C66.7728 93.2198 66.5929 95.2897 67.3215 97.1231C68.1607 99.2348 71.3687 100.967 77.7847 104.432L95.1621 113.815C96.1436 114.345 96.6341 114.61 97.0637 114.95C97.4451 115.252 97.7894 115.597 98.0903 115.98C98.4297 116.41 98.6936 116.901 99.2209 117.883Z" stroke="#0057FF" stroke-width="6.3" stroke-linecap="round" stroke-linejoin="round"/>
<path d="M144.797 67.9794L97.4729 115.304M48.6138 128.808L59.6623 117.759M70.7107 142.066L77.3398 135.437M90.5981 157.534L95.0175 153.115M99.2209 117.883L108.358 134.9C111.817 141.343 113.547 144.564 115.659 145.407C117.493 146.14 119.566 145.962 121.249 144.928C123.187 143.737 124.343 140.269 126.655 133.332L143.936 81.4905C145.971 75.3837 146.989 72.3299 146.265 70.2992C145.635 68.5323 144.245 67.1419 142.478 66.5117C140.447 65.7874 137.393 66.8056 131.286 68.8412L79.3737 86.1455C72.4563 88.4514 68.9976 89.6043 67.8068 91.5395C66.7728 93.2198 66.5929 95.2897 67.3215 97.1231C68.1607 99.2348 71.3687 100.967 77.7847 104.432L95.1621 113.815C96.1436 114.345 96.6341 114.61 97.0637 114.95C97.4451 115.252 97.7894 115.597 98.0903 115.98C98.4297 116.41 98.6936 116.901 99.2209 117.883Z" stroke="#0057FF" stroke-width="4.2" stroke-linecap="round" stroke-linejoin="round"/>
</g>
<defs>
<clipPath id="clip0_16_21">
<rect width="150" height="150" fill="white" transform="translate(0 106.711) rotate(-45)"/>
</clipPath>
</defs>
</svg>
